<?xml version="1.0" encoding="UTF-8"?> <svg xmlns="http://www.w3.org/2000/svg" width="32" height="40" viewBox="0 0 32 40" fill="none"> <path d="M29.6 38.5H29.7001V38.4V2.4C29.7001 1.90102 29.299 1.5 28.8 1.5H3.20005C2.70107 1.5 2.30005 1.90102 2.30005 2.4V38.4V38.5H2.40005H17.6H17.7001V38.4V28.9H26.3V38.4V38.5H26.4H29.6ZM7.20005 6.3H7.10005V6.4V9.6V9.7H7.20005H12.8H12.9V9.6V6.4V6.3H12.8H7.20005ZM19.2 6.3H19.1V6.4V9.6V9.7H19.2H24.8H24.9V9.6V6.4V6.3H24.8H19.2ZM7.20005 14.3H7.10005V14.4V17.6V17.7H7.20005H12.8H12.9V17.6V14.4V14.3H12.8H7.20005ZM19.2 14.3H19.1V14.4V17.6V17.7H19.2H24.8H24.9V17.6V14.4V14.3H24.8H19.2ZM7.20005 22.3H7.10005V22.4V25.6V25.7H7.20005H12.8H12.9V25.6V22.4V22.3H12.8H7.20005ZM19.2 22.3H19.1V22.4V25.6V25.7H19.2H24.8H24.9V25.6V22.4V22.3H24.8H19.2ZM7.20005 30.3H7.10005V30.4V33.6V33.7H7.20005H12.8H12.9V33.6V30.4V30.3H12.8H7.20005ZM19.2 30.3H19.1V30.4V38.4V38.5H19.2H24.8H24.9V38.4V30.4V30.3H24.8H19.2ZM0.900049 2.4C0.900049 1.1396 1.93965 0.1 3.20005 0.1H28.8C30.0604 0.1 31.1 1.1396 31.1 2.4V39.9H0.900049V2.4ZM14.3 11.1H5.70005V4.9H14.3V11.1ZM26.3 11.1H17.7001V4.9H26.3V11.1ZM14.3 19.1H5.70005V12.9H14.3V19.1ZM26.3 19.1H17.7001V12.9H26.3V19.1ZM14.3 27.1H5.70005V20.9H14.3V27.1ZM26.3 27.1H17.7001V20.9H26.3V27.1ZM14.3 35.1H5.70005V28.9H14.3V35.1Z" fill="#BA9A63" stroke="white" stroke-width="0.2"></path> </svg> 