<?xml version="1.0" encoding="UTF-8"?> <svg xmlns="http://www.w3.org/2000/svg" width="40" height="40" viewBox="0 0 40 40" fill="none"> <g clip-path="url(#clip0_202_98)"> <path d="M19.95 10.9677V11.0177H20H21.2403V14.7887H7.1468V11.0177H8.38712H8.43712V10.9677V7.74194V7.69194H8.38712H7.1468V5.16129V4.51613V3.52039L13.3943 0.05H14.9929L21.2403 3.52039V4.51613V5.16129V7.69194H20H19.95V7.74194V10.9677ZM13.7155 1.24032H13.7026L13.6912 1.24662L9.04671 3.82726L8.87806 3.92097H9.071H19.3162H19.5091L19.3404 3.82726L14.6959 1.24662L14.6846 1.24032H14.6716H13.7155ZM8.38712 5.11129H8.33712V5.16129V6.45161V6.50161H8.38712H20H20.05V6.45161V5.16129V5.11129H20H8.38712ZM18.7597 7.74194V7.69194H18.7097H17.4194H17.3694V7.74194V10.9677V11.0177H17.4194H18.7097H18.7597V10.9677V7.74194ZM16.1791 7.74194V7.69194H16.1291H14.8387H14.7887V7.74194V10.9677V11.0177H14.8387H16.1291H16.1791V10.9677V7.74194ZM13.5984 7.74194V7.69194H13.5484H12.2581H12.2081V7.74194V10.9677V11.0177H12.2581H13.5484H13.5984V10.9677V7.74194ZM11.0178 7.74194V7.69194H10.9678H9.67745H9.62745V7.74194V10.9677V11.0177H9.67745H10.9678H11.0178V10.9677V7.74194ZM20 13.5984H20.05V13.5484V12.2581V12.2081H20H8.38712H8.33712V12.2581V13.5484V13.5984H8.38712H20Z" fill="#BA9A63" stroke="white" stroke-width="0.1"></path> <path d="M27.1468 6.45158V6.40158H27.0968H22.6306V5.21125H28.3371V18.0145H27.1468V6.45158Z" fill="#BA9A63" stroke="white" stroke-width="0.1"></path> <path d="M27.0968 38.7596H27.1468V38.7096V34.8887H28.3371V39.95H5.56007L0.05 34.4399V5.21125H5.75645V6.40158H1.29032H1.24032V6.45158V33.5483V33.5983H1.29032H6.40161V38.7096V38.7596H6.45161H27.0968ZM5.12593 37.8327L5.21129 37.9181V37.7974V34.8387V34.7887H5.16129H2.20258H2.08187L2.16723 34.874L5.12593 37.8327Z" fill="#BA9A63" stroke="white" stroke-width="0.1"></path> <path d="M14.8887 26.4517C14.8887 21.8548 18.6289 18.1146 23.2258 18.1146C27.8227 18.1146 31.5629 21.8548 31.5629 26.4517C31.5629 31.0486 27.8227 34.7888 23.2258 34.7888C18.6289 34.7888 14.8887 31.0486 14.8887 26.4517ZM16.079 26.4517C16.079 30.3922 19.2853 33.5984 23.2258 33.5984C27.1663 33.5984 30.3726 30.3922 30.3726 26.4517C30.3726 22.5112 27.1663 19.3049 23.2258 19.3049C19.2853 19.3049 16.079 22.5112 16.079 26.4517Z" fill="#BA9A63" stroke="white" stroke-width="0.1"></path> <path d="M23.821 21.9355V21.9855H23.871H24.5161C25.8951 21.9855 27.0196 23.0935 27.0463 24.4661H25.8556C25.8291 23.75 25.238 23.1758 24.5161 23.1758H21.9355C21.1963 23.1758 20.5952 23.7769 20.5952 24.5161C20.5952 25.2553 21.1963 25.8564 21.9355 25.8564H24.5161C25.9118 25.8564 27.0468 26.9915 27.0468 28.3871C27.0468 29.7827 25.9118 30.9177 24.5161 30.9177H23.871H23.821V30.9677V32.208H22.6307V30.9677V30.9177H22.5807H21.9355C20.5566 30.9177 19.4321 29.8097 19.4053 28.4371H20.5961C20.6225 29.1532 21.213 29.7274 21.9355 29.7274H24.5161C25.2547 29.7274 25.8565 29.1263 25.8565 28.3871C25.8565 27.6478 25.2547 27.0468 24.5161 27.0468H21.9355C20.5399 27.0468 19.4049 25.9117 19.4049 24.5161C19.4049 23.1205 20.5399 21.9855 21.9355 21.9855H22.5807H22.6307V21.9355V20.6951H23.821V21.9355Z" fill="#BA9A63" stroke="white" stroke-width="0.1"></path> <path d="M37.9575 21.3194L37.9782 21.2904L37.9575 21.2613L36.5755 19.3258L36.5606 19.3049H36.5348H29.7274V18.1146H35.6129H35.7101L35.6536 18.0355L35.0285 17.1607L35.9968 16.4692L39.4405 21.2904L35.9968 26.1116L35.0285 25.42L35.6536 24.5453L35.7101 24.4662H35.6129H32.3081V23.2759H36.5348H36.5606L36.5755 23.2549L37.9575 21.3194Z" fill="#BA9A63" stroke="white" stroke-width="0.1"></path> <path d="M34.669 34.8678L35.2935 35.7425L34.3252 36.4341L30.8815 31.6129L34.3252 26.7917L35.2935 27.4832L34.669 28.358L34.6126 28.4371H34.7097H39.95V29.6274H33.7877H33.762L33.7471 29.6483L32.3645 31.5838L32.3437 31.6129L32.3645 31.642L33.7471 33.5774L33.762 33.5984H33.7877H39.95V34.7887H34.7097H34.6126L34.669 34.8678Z" fill="#BA9A63" stroke="white" stroke-width="0.1"></path> <path d="M10.798 34.8678L11.4225 35.7425L10.4542 36.4341L7.01048 31.6129L10.4542 26.7917L11.4225 27.4832L10.798 28.358L10.7416 28.4371H10.8387H14.1436V29.6274H9.91678H9.89105L9.87609 29.6483L8.49351 31.5838L8.47275 31.6129L8.49351 31.642L9.87609 33.5774L9.89105 33.5984H9.91678H17.3694V34.7887H10.8387H10.7416L10.798 34.8678Z" fill="#BA9A63" stroke="white" stroke-width="0.1"></path> <path d="M11.7419 24.4662H6.5016V23.2759H12.6639H12.6896L12.7045 23.2549L14.0865 21.3194L14.1072 21.2904L14.0865 21.2613L12.7045 19.3258L12.6896 19.3049H12.6639H6.5016V18.1146H11.7419H11.8391L11.7826 18.0355L11.1575 17.1607L12.1258 16.4692L15.5695 21.2904L12.1258 26.1116L11.1575 25.42L11.7826 24.5453L11.8391 24.4662H11.7419Z" fill="#BA9A63" stroke="white" stroke-width="0.1"></path> </g> <defs> <clipPath id="clip0_202_98"> <rect width="40" height="40" fill="white"></rect> </clipPath> </defs> </svg> 